<svg width="65" height="60" viewBox="0 0 65 60" xmlns="http://www.w3.org/2000/svg"><title>ic-amex</title><defs><radialGradient cx="22.081%" cy="15.984%" fx="22.081%" fy="15.984%" r="74.042%" id="a"><stop stop-color="#92D1F4" offset="0%"/><stop stop-color="#38B3E7" offset="57.367%"/><stop stop-color="#2F77BF" offset="100%"/></radialGradient></defs><g fill="none" fill-rule="evenodd"><path fill="url(#a)" d="M0 0h51v51H0z" transform="translate(7 5)"/><path d="M7 30.909h2.432l.548-1.332h1.227l.547 1.332h4.784v-1.018l.427 1.022h2.484l.427-1.037v1.033h11.89l-.006-2.186h.23c.16.006.208.02.208.288v1.898h6.15V30.4c.495.268 1.267.509 2.282.509h2.587l.553-1.332h1.228l.541 1.332h4.986v-1.265l.754 1.265h3.995v-8.363h-3.953v.988l-.554-.988H46.71v.988l-.508-.988h-5.48c-.917 0-1.723.13-2.375.489v-.489h-3.781v.489c-.415-.37-.98-.489-1.608-.489H19.143l-.927 2.16-.952-2.16h-4.351v.988l-.478-.988H8.723L7 26.523v4.386zm47.006-1.178h-2.017l-2.697-4.5v4.5h-2.898l-.554-1.337h-2.956l-.538 1.337h-1.665c-.692 0-1.568-.154-2.064-.663-.5-.51-.76-1.199-.76-2.289 0-.89.156-1.702.767-2.344.46-.479 1.18-.7 2.162-.7h1.377v1.285h-1.349c-.519 0-.812.078-1.095.355-.242.253-.409.73-.409 1.359 0 .642.127 1.105.392 1.408.219.237.617.309.991.309h.64l2.005-4.716h2.133l2.41 5.672v-5.672h2.166l2.501 4.176v-4.176h1.458v5.996zm-18.298 0h1.452v-5.996h-1.452v5.996zm-.825-4.38c0 .955-.634 1.45-1.003 1.597.311.12.577.33.704.505.2.299.235.565.235 1.1v1.178h-1.435l-.005-.756c0-.36.034-.88-.225-1.168-.208-.21-.525-.257-1.037-.257h-1.528v2.181h-1.423v-5.996h3.273c.728 0 1.263.02 1.724.287.45.268.72.66.72 1.328zm-6.703 4.38h-4.754v-5.996h4.754v1.249h-3.33v1.08h3.25v1.23h-3.25v1.197h3.33v1.24zm-5.815 0h-1.459l-.005-4.696-2.064 4.696h-1.25l-2.068-4.7v4.7h-2.894l-.547-1.337H9.115l-.553 1.337H7.017l2.548-5.996h2.114l2.42 5.677v-5.677h2.323l1.863 4.068 1.71-4.068h2.37v5.996zm22.99-2.587l-.985-2.39-.98 2.39h1.965zm-12.333-.952c-.196.12-.427.124-.704.124h-1.73v-1.332h1.753c.248 0 .507.011.675.108.185.088.299.273.299.53 0 .262-.109.473-.293.57zm-21.458.952l-.974-2.39-.969 2.39h1.943zm23.02 8.887c0 1.666-1.234 2.01-2.478 2.01H30.33v2.012h-2.766l-1.752-1.985-1.821 1.985h-5.637v-5.998h5.723l1.751 1.966 1.81-1.966h4.548c1.129 0 2.398.315 2.398 1.976zM23.27 38.803h-3.499V37.61h3.124v-1.224h-3.124v-1.09h3.568l1.557 1.748-1.626 1.759zm5.643.704l-2.185-2.443 2.185-2.365v4.808zm3.256-2.684H30.33v-1.527h1.856c.513 0 .87.21.87.735 0 .519-.34.792-.887.792zm9.602-2.768h4.75v1.24h-3.333v1.091h3.25v1.224h-3.25v1.193l3.332.005v1.245h-4.75v-5.998zm-1.798 3.21c.316.119.576.33.697.504.2.293.23.566.236 1.095v1.189h-1.429v-.75c0-.361.034-.896-.23-1.174-.208-.215-.525-.267-1.044-.267h-1.52v2.19h-1.43v-5.997h3.285c.72 0 1.245.032 1.712.284.45.273.732.647.732 1.331 0 .957-.635 1.446-1.01 1.596zm-.86-.746c-.19.114-.425.124-.702.124h-1.73v-1.347h1.753c.254 0 .507.005.68.108.184.097.294.283.294.54 0 .256-.11.463-.295.575zm12.841.37c.278.29.426.654.426 1.271 0 1.29-.8 1.893-2.236 1.893h-2.771v-1.286h2.76c.27 0 .462-.036.582-.149a.533.533 0 0 0 .168-.39.516.516 0 0 0-.174-.398c-.109-.091-.259-.133-.507-.133-1.33-.045-2.997.042-2.997-1.856 0-.87.543-1.785 2.034-1.785h2.854v1.276h-2.611c-.259 0-.427.01-.57.108-.156.098-.214.242-.214.432 0 .226.133.38.312.447.15.052.31.068.553.068l.766.02c.773.02 1.303.154 1.625.483zm5.677 2.397c-.345.509-1.019.767-1.93.767h-2.75v-1.286h2.738c.271 0 .461-.036.576-.149a.529.529 0 0 0 .168-.39.494.494 0 0 0-.174-.398c-.103-.091-.253-.133-.501-.133-1.336-.045-3.003.042-3.003-1.856 0-.87.548-1.785 2.041-1.785h2.835v-1.194h-2.634c-.794 0-1.372.192-1.78.49v-.49H49.32c-.623 0-1.355.156-1.7.49v-.49h-6.957v.49c-.554-.402-1.488-.49-1.919-.49h-4.588v.49c-.438-.427-1.412-.49-2.006-.49h-5.136l-1.175 1.281-1.1-1.28h-7.671v8.368h7.526l1.211-1.301 1.141 1.3 4.64.005v-1.969h.456c.615.01 1.341-.015 1.982-.294v2.259h3.826v-2.182h.185c.236 0 .26.01.26.247v1.934H49.92c.738 0 1.51-.19 1.937-.535v.535h3.687c.768 0 1.517-.108 2.087-.385v-1.56zm0-3.954h-2.594c-.258 0-.43.01-.575.108-.15.097-.208.241-.208.431 0 .227.126.38.311.447.15.053.311.068.548.068l.771.021c.779.02 1.298.154 1.615.483.058.045.092.097.132.148v-1.706z" fill="#FFF"/></g></svg>